# xmcd CD database file
#
# Track frame offsets:
#	150
#	20242
#	34797
#	49291
#	66877
#	79609
#	97057
#	114688
#	130408
#	150869
#	164787
#	177744
#	194313
#
# Disc length: 2753 seconds
#
# Revision: 0
# Processed by: cddbd v1.5PL3 Copyright (c) Steve Scherf et al.
# Submitted via: CDex 1.51
#
DISCID=bb0abf0d
DTITLE=Targino Gondim - toca pra nois dois
DYEAR=1998
DGENRE=Country
TTITLE0=Chiou chinela
TTITLE1=Toca pra nois dois
TTITLE2=Estalo de fogueira
TTITLE3=Ainda queima
TTITLE4=Lugar que tem amor
TTITLE5=Vou vaquejar
TTITLE6=Fingindo que nao ta
TTITLE7=Se casamento prestasse
TTITLE8=Sertao de curaca
TTITLE9=Sao joao menino
TTITLE10=Xote do apagao
TTITLE11=Meu coracao bate zabumba
TTITLE12=Galileia nordestina
EXTD=YEAR: 1998
EXTT0=
EXTT1=
EXTT2=
EXTT3=
EXTT4=
EXTT5=
EXTT6=
EXTT7=
EXTT8=
EXTT9=
EXTT10=
EXTT11=
EXTT12=
PLAYORDER=
